<svg xmlns="http://www.w3.org/2000/svg" width="48" height="48" viewBox="0 0 48 48"><g class="nc-icon-wrapper" fill="#FFFFFF" stroke-linejoin="miter" stroke-linecap="butt"><path d="M29 24h-10" stroke="#FFFFFF" stroke-width="2" stroke-miterlimit="10" stroke-linecap="butt" data-color="color-2" fill="none"></path><path d="M31 16h-14" stroke="#FFFFFF" stroke-width="2" stroke-miterlimit="10" stroke-linecap="butt" data-color="color-2" fill="none"></path><path d="M29 24v11h-10v-11l-2-8 2-3h10l2 3-2 8z" stroke="#FFFFFF" stroke-width="2" stroke-miterlimit="10" stroke-linecap="butt" data-color="color-2" fill="none"></path><path d="M29.13 15l-0.66-1h-8.93l-0.67 1h10.26z" fill="#FFFFFF" stroke="#FFFFFF" stroke-width="2" stroke-linecap="butt" data-color="color-2"></path><path d="M43 10v28a5 5 0 0 1-5 5h-28a5 5 0 0 1-5-5v-28a5 5 0 0 1 5-5h28a5 5 0 0 1 5 5z" stroke="#FFFFFF" stroke-width="2" stroke-miterlimit="10" stroke-linecap="butt" fill="none"></path><path d="M11.5 36a0.5 0.5 0 1 1 0 1 0.5 0.5 0 0 1 0-1z" stroke="#FFFFFF" stroke-width="2" stroke-miterlimit="10" stroke-linecap="butt" fill="none"></path><path d="M11.5 35a1.5 1.5 0 1 1 0 3 1.5 1.5 0 0 1 0-3z" fill="#FFFFFF" data-stroke="none" data-cap="butt" stroke="none"></path><path d="M11.5 11a0.5 0.5 0 1 1 0 1 0.5 0.5 0 0 1 0-1z" stroke="#FFFFFF" stroke-width="2" stroke-miterlimit="10" stroke-linecap="butt" fill="none"></path><path d="M11.5 10a1.5 1.5 0 1 1 0 3 1.5 1.5 0 0 1 0-3z" fill="#FFFFFF" data-stroke="none" data-cap="butt" stroke="none"></path><path d="M36.5 36a0.5 0.5 0 1 1 0 1 0.5 0.5 0 0 1 0-1z" stroke="#FFFFFF" stroke-width="2" stroke-miterlimit="10" stroke-linecap="butt" fill="none"></path><path d="M36.5 35a1.5 1.5 0 1 1 0 3 1.5 1.5 0 0 1 0-3z" fill="#FFFFFF" data-stroke="none" data-cap="butt" stroke="none"></path><path d="M36.5 11a0.5 0.5 0 1 1 0 1 0.5 0.5 0 0 1 0-1z" stroke="#FFFFFF" stroke-width="2" stroke-miterlimit="10" stroke-linecap="butt" fill="none"></path><path d="M36.5 10a1.5 1.5 0 1 1 0 3 1.5 1.5 0 0 1 0-3z" fill="#FFFFFF" data-stroke="none" data-cap="butt" stroke="none"></path></g></svg>